<?xml version="1.0" encoding="UTF-8"?>
<svg version="1.1" xmlns="http://www.w3.org/2000/svg" width="1000" height="1000">
<path d="M0 0 C3.21804829 2.12806419 6.11357126 4.44515724 9 7 C9.81855469 7.68835938 10.63710938 8.37671875 11.48046875 9.0859375 C18.61323411 15.23673365 25.79120867 21.95120846 29 31 C27.85144531 30.46890625 26.70289063 29.9378125 25.51953125 29.390625 C7.19971819 19.93324636 7.19971819 19.93324636 -12.4375 19.875 C-14.15893274 20.93074101 -14.15893274 20.93074101 -15 23 C-16.45294189 34.24378896 -13.38424641 41.99085093 -8.87207031 52.00732422 C-4.53377524 61.92030417 -3.29555774 71.31558755 -3 82 C-1.783125 81.67 -0.56625 81.34 0.6875 81 C13.95921584 78.10851332 25.59241784 80.97111899 38.0625 85.5625 C56.18833263 92.11613981 75.99392993 91.63845432 95 90 C89.68429012 104.77767345 76.58455074 115.37412717 62.8828125 122.13183594 C52.83135891 126.76655702 42.73404467 128.59497334 31.73779297 129.36865234 C25.65638654 129.80134924 25.65638654 129.80134924 20 132 C18.4882559 135.0234882 18.45828345 137.73164345 19 141 C20.41232556 144.47432089 22.1845035 147.72173204 24 151 C33.25004212 167.81825841 33.25434904 187.00246443 28.15625 205.2578125 C26.61497918 210.24611467 24.96456364 215.16173954 23 220 C21.10613155 217.15919732 20.70909351 216.07334264 20.1875 212.875 C19.1323561 207.65075093 16.78525886 203.49681105 14 199 C14.04640625 199.79921875 14.0928125 200.5984375 14.140625 201.421875 C14.41645291 209.81492411 13.0283566 216.2221345 10 224 C9.42637747 225.62110716 8.86282001 227.24583483 8.3125 228.875 C8.08175781 229.53242187 7.85101562 230.18984375 7.61328125 230.8671875 C6.02511182 236.39037546 5.80762104 241.79954666 5.8125 247.5 C5.8115332 248.67888794 5.8115332 248.67888794 5.81054688 249.8815918 C5.86572341 256.07453032 6.51155869 261.97343486 7.5625 268.08203125 C7.9665695 270.77703053 8.08041372 273.28101103 8 276 C-0.30665699 268.18196989 -5.12207168 259.20844793 -10 249 C-10.66453172 247.66560133 -11.33073551 246.33203126 -12 245 C-14.75878623 253.16727143 -15.21762373 260.25195458 -14.875 268.8125 C-14.69646937 279.11017556 -15.25338267 286.71456656 -20 296 C-20.34836914 296.71043457 -20.69673828 297.42086914 -21.05566406 298.15283203 C-28.28883554 312.87639573 -28.28883554 312.87639573 -33 317 C-33.99 313.535 -33.99 313.535 -35 310 C-35.38671875 311.09699219 -35.7734375 312.19398438 -36.171875 313.32421875 C-36.69741142 314.77882847 -37.2234814 316.2332455 -37.75 317.6875 C-38.00265625 318.40873047 -38.2553125 319.12996094 -38.515625 319.87304688 C-40.10644026 324.22790366 -41.83530236 327.51195282 -45 331 C-45.09474609 330.12601563 -45.09474609 330.12601563 -45.19140625 329.234375 C-46.32198791 321.66542831 -49.4752912 313.5247088 -55 308 C-55.66 310.97 -56.32 313.94 -57 317 C-57.66 317 -58.32 317 -59 317 C-68.66200255 300.22305876 -76.69396545 285.74554412 -76 265.875 C-75.72063218 257.81989465 -75.94652191 251.5223705 -79 244 C-79.41958984 245.21623047 -79.41958984 245.21623047 -79.84765625 246.45703125 C-82.71020222 254.3635489 -86.17013863 261.12755409 -91 268 C-91.56460938 268.81210937 -92.12921875 269.62421875 -92.7109375 270.4609375 C-95.63185641 274.52172721 -95.63185641 274.52172721 -97 276 C-97.66 276 -98.32 276 -99 276 C-98.855625 275.29101562 -98.71125 274.58203125 -98.5625 273.8515625 C-95.71425093 257.51368937 -94.18277801 238.47362257 -101 223 C-104.20889321 215.42422168 -105 208.23324727 -105 200 C-108.95403217 206.59005362 -111.07434454 212.28620446 -112 220 C-115.18206298 218.40896851 -115.33293929 215.73741813 -116.4375 212.4375 C-122.61788033 193.48083289 -125.51081704 172.95019247 -116.43188477 154.38085938 C-115.55003909 152.66013981 -114.63531506 150.95638565 -113.71875 149.25390625 C-110.19616268 142.83583478 -110.19616268 142.83583478 -109 135.75 C-109.76892184 132.91469267 -109.76892184 132.91469267 -111.94921875 131.3828125 C-116.20303995 129.45470404 -120.19161002 129.38934728 -124.8125 129.125 C-148.11665529 127.30848958 -164.81083187 117.61200583 -180.30859375 100.140625 C-182.13076789 97.83450161 -183.68070583 95.63010413 -185 93 C-184.67 92.01 -184.34 91.02 -184 90 C-183.37770508 90.0407666 -182.75541016 90.0815332 -182.11425781 90.12353516 C-158.98766549 91.56205163 -139.1412239 90.23951803 -117.40234375 81.83203125 C-112.6345202 80.18073626 -108.22307755 79.84025952 -103.1875 79.8125 C-102.02605469 79.79832031 -100.86460937 79.78414063 -99.66796875 79.76953125 C-95.52319245 80.02995915 -91.99404042 80.88834739 -88 82 C-87.96036133 81.35264893 -87.92072266 80.70529785 -87.87988281 80.03833008 C-86.0790529 51.82947366 -83.28945559 16.45335101 -61 -4 C-42.9511669 -18.07255761 -17.81323697 -10.51330261 0 0 Z M-91 127 C-93.54292289 129.54292289 -93.297619 130.53570198 -93.3125 134.0625 C-93.1931866 140.11566664 -92.57933084 146.42066916 -88.125 150.875 C-85.98944504 152.05800177 -85.98944504 152.05800177 -83.5703125 152.9453125 C-79.5900406 156.12711041 -79.0085103 160.19600906 -77.75 165 C-77.49476563 165.91523438 -77.23953125 166.83046875 -76.9765625 167.7734375 C-76.50385253 169.47021751 -76.03910452 171.16925042 -75.58496094 172.87109375 C-75.11085614 174.59655028 -74.56586002 176.30241994 -74 178 C-71.03595372 176.60789736 -68.47217943 174.96642353 -65.8125 173.0625 C-61.42440397 170.08121881 -57.10098445 168.3747334 -52 167 C-51.95926864 164.21302578 -51.95926864 164.21302578 -53 161 C-54.63780947 159.60184339 -54.63780947 159.60184339 -56.5625 158.3125 C-59.20305172 156.30244736 -59.9168829 155.50926831 -60.4609375 152.17578125 C-60.43976632 149.41999918 -60.30691626 146.73788787 -60 144 C-59.4121875 145.36125 -59.4121875 145.36125 -58.8125 146.75 C-56.84168813 150.28386956 -55.36683085 151.80096503 -52 154 C-48.82555099 154.59196854 -48.82555099 154.59196854 -45.5 154.4375 C-44.3965625 154.43621094 -43.293125 154.43492187 -42.15625 154.43359375 C-38.67972502 153.95600183 -36.78980041 153.09852243 -34 151 C-32.03542447 147.74828878 -31 145.81307353 -31 142 C-30.34 142 -29.68 142 -29 142 C-29.11470137 143.75070517 -29.24219028 145.50057536 -29.375 147.25 C-29.44460938 148.22453125 -29.51421875 149.1990625 -29.5859375 150.203125 C-29.99079047 152.93779221 -30.50336702 154.69225473 -32 157 C-32.825 157.433125 -33.65 157.86625 -34.5 158.3125 C-37.96020221 160.64813649 -38.17517086 163.02582324 -39 167 C-38.27554688 167.24234375 -37.55109375 167.4846875 -36.8046875 167.734375 C-31.29667987 169.64381764 -26.71121839 171.58436667 -22 175 C-20.515 175.495 -20.515 175.495 -19 176 C-18.67 176.99 -18.34 177.98 -18 179 C-15.61603841 176.61603841 -15.36544678 175.15766303 -14.5546875 171.9140625 C-14.14476562 170.39425781 -14.14476562 170.39425781 -13.7265625 168.84375 C-13.16229428 166.71091967 -12.61773132 164.57277112 -12.09375 162.4296875 C-9.97013934 154.75351687 -9.97013934 154.75351687 -7.04394531 152.48071289 C-4.8828125 151.44921875 -4.8828125 151.44921875 -2.80908203 150.7409668 C-0.65655379 150.04752449 -0.65655379 150.04752449 1 147.1875 C3.05555907 141.24339926 2.21599084 134.21573637 2 128 C-2.01805435 126.36920044 -4.58033916 127.76078934 -8.4375 129.375 C-14.07460988 131.71345346 -18.85497039 133.11150634 -24.96704102 133.16113281 C-25.92896866 133.17074036 -26.8908963 133.1803479 -27.88197327 133.19024658 C-29.42733009 133.1966214 -29.42733009 133.1966214 -31.00390625 133.203125 C-32.07817368 133.20882507 -33.1524411 133.21452515 -34.25926208 133.22039795 C-36.53293884 133.22983447 -38.8066292 133.23637657 -41.08032227 133.24023438 C-44.52580295 133.24989708 -47.97067589 133.28091628 -51.41601562 133.3125 C-53.63280899 133.3190351 -55.84960658 133.32428358 -58.06640625 133.328125 C-59.08247452 133.3404718 -60.09854279 133.3528186 -61.145401 133.36553955 C-70.73698509 133.33628599 -79.51198177 131.57047135 -88 127 C-88.99 127 -89.98 127 -91 127 Z M-68.45703125 187.7734375 C-71.0994814 191.58659342 -73.43721119 195.62093552 -75 200 C-74.67 200.66 -74.34 201.32 -74 202 C-73.12988281 201.15115234 -73.12988281 201.15115234 -72.2421875 200.28515625 C-71.46101563 199.55167969 -70.67984375 198.81820312 -69.875 198.0625 C-69.10929687 197.33160156 -68.34359375 196.60070312 -67.5546875 195.84765625 C-62.54780331 192.22646936 -57.48464105 192.97517783 -51.5625 193.5 C-45.89283808 193.97835504 -40.71586939 193.84288052 -35.0625 193.1875 C-28.87123963 192.6579413 -25.57975969 193.49057947 -20.734375 197.359375 C-19.12699849 198.87986629 -17.54533647 200.41650708 -16 202 C-17.48379194 192.30359221 -24.15198973 184.5409665 -31.6953125 178.68359375 C-44.83335413 170.52208304 -59.59990309 176.87559335 -68.45703125 187.7734375 Z " fill="#231F20" transform="translate(545,341)"/>
<path d="M0 0 C1.34368149 -0.00101212 1.34368149 -0.00101212 2.71450806 -0.00204468 C74.90213777 0.08356247 156.09684134 19.24068359 216.25 60.7253418 C218.17415378 61.99395881 220.10046632 63.11457045 222.109375 64.23754883 C231.75563259 69.92704942 231.75563259 69.92704942 233.75268555 75.67651367 C234.10132575 79.80901213 233.99061623 83.68760046 233.6875 87.8125 C233.62434265 89.35203001 233.56595181 90.89176184 233.51196289 92.43164062 C233.34196255 96.54141258 233.06814837 100.63700651 232.7543335 104.73809814 C232.56456445 107.22296773 232.39144379 109.70854912 232.22119141 112.19482422 C225.73092706 203.98635263 200.70899021 299.31924705 127.5625 408.25 C126.83289063 409.16910156 126.10328125 410.08820313 125.3515625 411.03515625 C120.5752999 416.99291539 115.53737792 422.64633977 110.3359375 428.23046875 C108.23184411 430.49299251 106.2115534 432.81578214 104.19921875 435.16015625 C100.68401982 439.19136958 96.92353374 442.86956473 93 446.5 C92.30455078 447.14622314 91.60910156 447.79244629 90.89257812 448.45825195 C69.49115308 468.23120187 46.5239833 484.69406469 21.06591797 498.85009766 C18.7314633 500.15551633 16.413433 501.48603996 14.09765625 502.82421875 C12.77406174 503.57141936 11.44988449 504.31758908 10.125 505.0625 C8.99191406 505.70832031 7.85882813 506.35414063 6.69140625 507.01953125 C2.95538484 508.48875315 1.42687713 508.17642017 -2.4375 507.25 C-5.41918945 505.93408203 -5.41918945 505.93408203 -8.55078125 504.2578125 C-9.70803711 503.64075439 -10.86529297 503.02369629 -12.05761719 502.38793945 C-13.28892406 501.71790076 -14.51970834 501.04690095 -15.75 500.375 C-16.68882019 499.86663101 -16.68882019 499.86663101 -17.64660645 499.34799194 C-41.00599391 486.68658855 -62.3335279 471.4025785 -81.98046875 453.48828125 C-83.59728342 452.01541193 -85.224693 450.55407575 -86.86328125 449.10546875 C-96.29553345 440.75634599 -105.39308348 431.95822155 -113.4375 422.25 C-113.87610352 421.72519043 -114.31470703 421.20038086 -114.76660156 420.65966797 C-128.61333793 404.05174547 -141.30330835 386.79580717 -152.4375 368.25 C-153.15969727 367.04899658 -153.15969727 367.04899658 -153.89648438 365.82373047 C-171.9656443 335.52954145 -186.55450913 303.36774422 -197.57324219 269.86083984 C-198.54090418 266.93762591 -199.54106439 264.02627214 -200.5390625 261.11328125 C-214.12469493 220.85190853 -222.30929072 178.72904325 -227.06298828 136.55078125 C-227.39384768 133.6347323 -227.75386699 130.72412261 -228.12109375 127.8125 C-228.77134414 122.29909446 -229.14980235 116.79344254 -229.4375 111.25 C-229.49831757 110.16193054 -229.49831757 110.16193054 -229.56036377 109.05187988 C-229.84300369 103.88094639 -230.04474615 98.71347435 -230.17248535 93.53637695 C-230.22371613 91.77742652 -230.29346439 90.01890738 -230.38269043 88.26147461 C-231.06131028 74.26602457 -231.06131028 74.26602457 -227.22998047 69.50927734 C-224.39792283 67.42273097 -221.57914729 65.82408019 -218.4375 64.25 C-216.99710995 63.29848949 -215.568561 62.32864763 -214.15625 61.3359375 C-151.88379269 20.83382532 -73.9728109 0.05059993 0 0 Z M-175.46826172 57.21240234 C-177.66611244 58.37045659 -179.88064706 59.49236213 -182.09765625 60.61328125 C-192.37362507 65.85291643 -201.9861753 71.64423542 -211.4375 78.25 C-212.9225 79.24 -212.9225 79.24 -214.4375 80.25 C-214.90486193 82.54840178 -214.90486193 82.54840178 -214.8359375 85.26171875 C-214.84214111 86.31294922 -214.84834473 87.36417969 -214.85473633 88.44726562 C-214.83382935 90.17493164 -214.83382935 90.17493164 -214.8125 91.9375 C-214.80307373 93.14212891 -214.79364746 94.34675781 -214.78393555 95.58789062 C-213.79998669 156.58487962 -199.53410343 217.96343577 -179.4375 275.25 C-179.0338623 276.40677246 -178.63022461 277.56354492 -178.21435547 278.75537109 C-161.11899862 327.30974763 -135.22068539 375.69975636 -99.921875 413.5546875 C-97.95578269 415.68771217 -96.05056342 417.84738518 -94.15625 420.04296875 C-90.3321475 424.42719828 -86.3026336 428.57704109 -82.1875 432.6875 C-81.44024658 433.43394775 -80.69299316 434.18039551 -79.9230957 434.94946289 C-75.14679399 439.67320416 -70.30624522 444.09139948 -65.01171875 448.23046875 C-62.24158748 450.40369768 -59.60045623 452.69700199 -56.9375 455 C-45.0379926 464.9239731 -31.83855345 473.47898649 -18.38232422 481.14111328 C-16.99666952 481.9311765 -15.6159887 482.72999028 -14.23876953 483.53466797 C-11.96306217 484.85849603 -9.672162 486.15132727 -7.375 487.4375 C-6.6722998 487.8490332 -5.96959961 488.26056641 -5.24560547 488.68457031 C-1.99085158 490.46102892 -0.25500832 491.37804347 3.48046875 490.79296875 C4.49753906 490.28378906 5.51460937 489.77460937 6.5625 489.25 C7.23869385 488.91411865 7.9148877 488.5782373 8.61157227 488.23217773 C11.04042899 486.99394215 13.42738052 485.69548217 15.8125 484.375 C16.6900293 483.8895874 17.56755859 483.4041748 18.47167969 482.90405273 C50.5583117 464.88488785 80.69853212 440.28531185 104.5625 412.25 C105.36171875 411.33992188 106.1609375 410.42984375 106.984375 409.4921875 C125.31742619 388.46528642 140.09275574 364.59651374 153.5625 340.25 C153.95888672 339.54375488 154.35527344 338.83750977 154.76367188 338.10986328 C193.3322844 269.24450269 211.83954418 186.5349565 217.11376953 108.32614136 C217.40798709 104.03960341 217.83502238 99.7892224 218.34375 95.5234375 C219.43005659 86.52862445 219.43005659 86.52862445 216.17089844 78.44335938 C212.25417641 74.8740711 207.74122462 72.60812902 202.96484375 70.39160156 C200.68708405 69.30920275 198.5423574 68.12293497 196.375 66.8359375 C173.98045261 53.56968842 150.17672773 43.51354554 125.5625 35.25 C124.56283203 34.91274902 123.56316406 34.57549805 122.53320312 34.22802734 C96.38370995 25.58822758 67.97303281 19.89239718 40.5625 17.25 C39.01925049 17.09990479 39.01925049 17.09990479 37.44482422 16.94677734 C-34.3062071 10.25338747 -111.5829417 23.25168901 -175.46826172 57.21240234 Z " fill="#231F20" transform="translate(498.4375,245.75)"/>
<path d="M0 0 C0.89444824 0.31018066 1.78889648 0.62036133 2.71044922 0.93994141 C25.25552889 8.85688582 46.56813091 19.67174816 67 32 C65.06912607 116.86190923 39.98759782 207.492397 -44 330 C-45.52397944 331.70552733 -47.04493644 333.41376137 -48.5625 335.125 C-49.22378906 335.87007812 -49.88507813 336.61515625 -50.56640625 337.3828125 C-51.03949219 337.91648437 -51.51257813 338.45015625 -52 339 C-52.66 338.67 -53.32 338.34 -54 338 C-53.35675781 337.27039063 -52.71351563 336.54078125 -52.05078125 335.7890625 C6.9668171 267.9542704 35.11678607 178.16201096 52 40 C10.2072504 17.00607243 -34.85182196 3.55468663 -82 -3 C-82.65897278 -3.0932254 -83.31794556 -3.18645081 -83.99688721 -3.28250122 C-97.16193181 -5.09865669 -110.22402934 -5.36229334 -123.5 -5.3125 C-125.09237488 -5.30876877 -125.09237488 -5.30876877 -126.71691895 -5.30496216 C-142.68504501 -5.2471458 -158.24061786 -4.78053073 -174 -2 C-174.66114807 -1.88593811 -175.32229614 -1.77187622 -176.003479 -1.65435791 C-195.96396454 1.79105688 -215.67152805 5.85947538 -235 12 C-235.96115723 12.30518555 -236.92231445 12.61037109 -237.91259766 12.92480469 C-259.56690387 19.91473795 -280.06336448 29.0662559 -300 40 C-301.41351511 108.72126536 -280.83807165 184.34666965 -252.22412109 246.34179688 C-251.1265519 248.72519005 -250.05300368 251.11743622 -248.98828125 253.515625 C-235.12987378 284.35663135 -215.78011047 312.28093338 -194 338 C-194.33 338.66 -194.66 339.32 -195 340 C-200.58533832 334.52864817 -205.98373269 328.99854018 -211 323 C-211.44827148 322.46552246 -211.89654297 321.93104492 -212.35839844 321.38037109 C-275.7163193 245.53540369 -309.52700439 142.44023214 -314.85986328 44.28564453 C-314.96004563 42.65165998 -315.12764643 41.02125489 -315.33935547 39.39794922 C-315.57855339 36.71704284 -315.63731019 34.61800094 -315 32 C-312.58387281 29.32297282 -309.71620787 27.93555412 -306.5 26.375 C-305.63213867 25.91681885 -304.76427734 25.4586377 -303.87011719 24.98657227 C-301.26356189 23.62149511 -298.63470087 22.30969735 -296 21 C-294.65936502 20.29694607 -293.3206168 19.59027453 -291.984375 18.87890625 C-288.04073872 16.80707021 -284.03712735 14.88228747 -280 13 C-279.17612793 12.61489258 -278.35225586 12.22978516 -277.50341797 11.83300781 C-196.49870019 -25.61775263 -103.64781019 -31.38246797 0 0 Z " fill="#231F20" transform="translate(624,307)"/>
</svg>
